<?xml version="1.0" encoding="utf-8" standalone="no"?>
<!DOCTYPE svg PUBLIC "-//W3C//DTD SVG 1.1//EN"
  "http://www.w3.org/Graphics/SVG/1.1/DTD/svg11.dtd">
<!-- Created with matplotlib (https://matplotlib.org/) -->
<svg height="486pt" version="1.1" viewBox="0 0 864 486" width="864pt" xmlns="http://www.w3.org/2000/svg" xmlns:xlink="http://www.w3.org/1999/xlink">
 <defs>
  <style type="text/css">
*{stroke-linecap:butt;stroke-linejoin:round;}
  </style>
 </defs>
 <g id="figure_1">
  <g id="patch_1">
   <path d="M 0 486 
L 864 486 
L 864 0 
L 0 0 
z
" style="fill:#ffffff;"/>
  </g>
  <g id="axes_1">
   <g id="patch_2">
    <path d="M 122.42 187.96 
L 853.2 187.96 
L 853.2 30.48 
L 122.42 30.48 
z
" style="fill:#ffffff;"/>
   </g>
   <g id="matplotlib.axis_1">
    <g id="xtick_1">
     <g id="line2d_1">
      <path clip-path="url(#p2643c71399)" d="M 155.637273 187.96 
L 155.637273 30.48 
" style="fill:none;stroke:#b0b0b0;stroke-linecap:square;stroke-width:0.8;"/>
     </g>
     <g id="line2d_2">
      <defs>
       <path d="M 0 0 
L 0 3.5 
" id="m87c79b80d1" style="stroke:#000000;stroke-width:0.8;"/>
      </defs>
      <g>
       <use style="stroke:#000000;stroke-width:0.8;" x="155.637273" xlink:href="#m87c79b80d1" y="187.96"/>
      </g>
     </g>
     <g id="text_1">
      <!-- 0 -->
      <defs>
       <path d="M 31.78125 66.40625 
Q 24.171875 66.40625 20.328125 58.90625 
Q 16.5 51.421875 16.5 36.375 
Q 16.5 21.390625 20.328125 13.890625 
Q 24.171875 6.390625 31.78125 6.390625 
Q 39.453125 6.390625 43.28125 13.890625 
Q 47.125 21.390625 47.125 36.375 
Q 47.125 51.421875 43.28125 58.90625 
Q 39.453125 66.40625 31.78125 66.40625 
z
M 31.78125 74.21875 
Q 44.046875 74.21875 50.515625 64.515625 
Q 56.984375 54.828125 56.984375 36.375 
Q 56.984375 17.96875 50.515625 8.265625 
Q 44.046875 -1.421875 31.78125 -1.421875 
Q 19.53125 -1.421875 13.0625 8.265625 
Q 6.59375 17.96875 6.59375 36.375 
Q 6.59375 54.828125 13.0625 64.515625 
Q 19.53125 74.21875 31.78125 74.21875 
z
" id="DejaVuSans-48"/>
      </defs>
      <g transform="translate(149.911023 208.637188)scale(0.18 -0.18)">
       <use xlink:href="#DejaVuSans-48"/>
      </g>
     </g>
    </g>
    <g id="xtick_2">
     <g id="line2d_3">
      <path clip-path="url(#p2643c71399)" d="M 296.987369 187.96 
L 296.987369 30.48 
" style="fill:none;stroke:#b0b0b0;stroke-linecap:square;stroke-width:0.8;"/>
     </g>
     <g id="line2d_4">
      <g>
       <use style="stroke:#000000;stroke-width:0.8;" x="296.987369" xlink:href="#m87c79b80d1" y="187.96"/>
      </g>
     </g>
     <g id="text_2">
      <!-- 20 -->
      <defs>
       <path d="M 19.1875 8.296875 
L 53.609375 8.296875 
L 53.609375 0 
L 7.328125 0 
L 7.328125 8.296875 
Q 12.9375 14.109375 22.625 23.890625 
Q 32.328125 33.6875 34.8125 36.53125 
Q 39.546875 41.84375 41.421875 45.53125 
Q 43.3125 49.21875 43.3125 52.78125 
Q 43.3125 58.59375 39.234375 62.25 
Q 35.15625 65.921875 28.609375 65.921875 
Q 23.96875 65.921875 18.8125 64.3125 
Q 13.671875 62.703125 7.8125 59.421875 
L 7.8125 69.390625 
Q 13.765625 71.78125 18.9375 73 
Q 24.125 74.21875 28.421875 74.21875 
Q 39.75 74.21875 46.484375 68.546875 
Q 53.21875 62.890625 53.21875 53.421875 
Q 53.21875 48.921875 51.53125 44.890625 
Q 49.859375 40.875 45.40625 35.40625 
Q 44.1875 33.984375 37.640625 27.21875 
Q 31.109375 20.453125 19.1875 8.296875 
z
" id="DejaVuSans-50"/>
      </defs>
      <g transform="translate(285.534869 208.637188)scale(0.18 -0.18)">
       <use xlink:href="#DejaVuSans-50"/>
       <use x="63.623047" xlink:href="#DejaVuSans-48"/>
      </g>
     </g>
    </g>
    <g id="xtick_3">
     <g id="line2d_5">
      <path clip-path="url(#p2643c71399)" d="M 438.337466 187.96 
L 438.337466 30.48 
" style="fill:none;stroke:#b0b0b0;stroke-linecap:square;stroke-width:0.8;"/>
     </g>
     <g id="line2d_6">
      <g>
       <use style="stroke:#000000;stroke-width:0.8;" x="438.337466" xlink:href="#m87c79b80d1" y="187.96"/>
      </g>
     </g>
     <g id="text_3">
      <!-- 40 -->
      <defs>
       <path d="M 37.796875 64.3125 
L 12.890625 25.390625 
L 37.796875 25.390625 
z
M 35.203125 72.90625 
L 47.609375 72.90625 
L 47.609375 25.390625 
L 58.015625 25.390625 
L 58.015625 17.1875 
L 47.609375 17.1875 
L 47.609375 0 
L 37.796875 0 
L 37.796875 17.1875 
L 4.890625 17.1875 
L 4.890625 26.703125 
z
" id="DejaVuSans-52"/>
      </defs>
      <g transform="translate(426.884966 208.637188)scale(0.18 -0.18)">
       <use xlink:href="#DejaVuSans-52"/>
       <use x="63.623047" xlink:href="#DejaVuSans-48"/>
      </g>
     </g>
    </g>
    <g id="xtick_4">
     <g id="line2d_7">
      <path clip-path="url(#p2643c71399)" d="M 579.687563 187.96 
L 579.687563 30.48 
" style="fill:none;stroke:#b0b0b0;stroke-linecap:square;stroke-width:0.8;"/>
     </g>
     <g id="line2d_8">
      <g>
       <use style="stroke:#000000;stroke-width:0.8;" x="579.687563" xlink:href="#m87c79b80d1" y="187.96"/>
      </g>
     </g>
     <g id="text_4">
      <!-- 60 -->
      <defs>
       <path d="M 33.015625 40.375 
Q 26.375 40.375 22.484375 35.828125 
Q 18.609375 31.296875 18.609375 23.390625 
Q 18.609375 15.53125 22.484375 10.953125 
Q 26.375 6.390625 33.015625 6.390625 
Q 39.65625 6.390625 43.53125 10.953125 
Q 47.40625 15.53125 47.40625 23.390625 
Q 47.40625 31.296875 43.53125 35.828125 
Q 39.65625 40.375 33.015625 40.375 
z
M 52.59375 71.296875 
L 52.59375 62.3125 
Q 48.875 64.0625 45.09375 64.984375 
Q 41.3125 65.921875 37.59375 65.921875 
Q 27.828125 65.921875 22.671875 59.328125 
Q 17.53125 52.734375 16.796875 39.40625 
Q 19.671875 43.65625 24.015625 45.921875 
Q 28.375 48.1875 33.59375 48.1875 
Q 44.578125 48.1875 50.953125 41.515625 
Q 57.328125 34.859375 57.328125 23.390625 
Q 57.328125 12.15625 50.6875 5.359375 
Q 44.046875 -1.421875 33.015625 -1.421875 
Q 20.359375 -1.421875 13.671875 8.265625 
Q 6.984375 17.96875 6.984375 36.375 
Q 6.984375 53.65625 15.1875 63.9375 
Q 23.390625 74.21875 37.203125 74.21875 
Q 40.921875 74.21875 44.703125 73.484375 
Q 48.484375 72.75 52.59375 71.296875 
z
" id="DejaVuSans-54"/>
      </defs>
      <g transform="translate(568.235063 208.637188)scale(0.18 -0.18)">
       <use xlink:href="#DejaVuSans-54"/>
       <use x="63.623047" xlink:href="#DejaVuSans-48"/>
      </g>
     </g>
    </g>
    <g id="xtick_5">
     <g id="line2d_9">
      <path clip-path="url(#p2643c71399)" d="M 721.03766 187.96 
L 721.03766 30.48 
" style="fill:none;stroke:#b0b0b0;stroke-linecap:square;stroke-width:0.8;"/>
     </g>
     <g id="line2d_10">
      <g>
       <use style="stroke:#000000;stroke-width:0.8;" x="721.03766" xlink:href="#m87c79b80d1" y="187.96"/>
      </g>
     </g>
     <g id="text_5">
      <!-- 80 -->
      <defs>
       <path d="M 31.78125 34.625 
Q 24.75 34.625 20.71875 30.859375 
Q 16.703125 27.09375 16.703125 20.515625 
Q 16.703125 13.921875 20.71875 10.15625 
Q 24.75 6.390625 31.78125 6.390625 
Q 38.8125 6.390625 42.859375 10.171875 
Q 46.921875 13.96875 46.921875 20.515625 
Q 46.921875 27.09375 42.890625 30.859375 
Q 38.875 34.625 31.78125 34.625 
z
M 21.921875 38.8125 
Q 15.578125 40.375 12.03125 44.71875 
Q 8.5 49.078125 8.5 55.328125 
Q 8.5 64.0625 14.71875 69.140625 
Q 20.953125 74.21875 31.78125 74.21875 
Q 42.671875 74.21875 48.875 69.140625 
Q 55.078125 64.0625 55.078125 55.328125 
Q 55.078125 49.078125 51.53125 44.71875 
Q 48 40.375 41.703125 38.8125 
Q 48.828125 37.15625 52.796875 32.3125 
Q 56.78125 27.484375 56.78125 20.515625 
Q 56.78125 9.90625 50.3125 4.234375 
Q 43.84375 -1.421875 31.78125 -1.421875 
Q 19.734375 -1.421875 13.25 4.234375 
Q 6.78125 9.90625 6.78125 20.515625 
Q 6.78125 27.484375 10.78125 32.3125 
Q 14.796875 37.15625 21.921875 38.8125 
z
M 18.3125 54.390625 
Q 18.3125 48.734375 21.84375 45.5625 
Q 25.390625 42.390625 31.78125 42.390625 
Q 38.140625 42.390625 41.71875 45.5625 
Q 45.3125 48.734375 45.3125 54.390625 
Q 45.3125 60.0625 41.71875 63.234375 
Q 38.140625 66.40625 31.78125 66.40625 
Q 25.390625 66.40625 21.84375 63.234375 
Q 18.3125 60.0625 18.3125 54.390625 
z
" id="DejaVuSans-56"/>
      </defs>
      <g transform="translate(709.58516 208.637188)scale(0.18 -0.18)">
       <use xlink:href="#DejaVuSans-56"/>
       <use x="63.623047" xlink:href="#DejaVuSans-48"/>
      </g>
     </g>
    </g>
    <g id="text_6">
     <!-- Time -->
     <defs>
      <path d="M -0.296875 72.90625 
L 61.375 72.90625 
L 61.375 64.59375 
L 35.5 64.59375 
L 35.5 0 
L 25.59375 0 
L 25.59375 64.59375 
L -0.296875 64.59375 
z
" id="DejaVuSans-84"/>
      <path d="M 9.421875 54.6875 
L 18.40625 54.6875 
L 18.40625 0 
L 9.421875 0 
z
M 9.421875 75.984375 
L 18.40625 75.984375 
L 18.40625 64.59375 
L 9.421875 64.59375 
z
" id="DejaVuSans-105"/>
      <path d="M 52 44.1875 
Q 55.375 50.25 60.0625 53.125 
Q 64.75 56 71.09375 56 
Q 79.640625 56 84.28125 50.015625 
Q 88.921875 44.046875 88.921875 33.015625 
L 88.921875 0 
L 79.890625 0 
L 79.890625 32.71875 
Q 79.890625 40.578125 77.09375 44.375 
Q 74.3125 48.1875 68.609375 48.1875 
Q 61.625 48.1875 57.5625 43.546875 
Q 53.515625 38.921875 53.515625 30.90625 
L 53.515625 0 
L 44.484375 0 
L 44.484375 32.71875 
Q 44.484375 40.625 41.703125 44.40625 
Q 38.921875 48.1875 33.109375 48.1875 
Q 26.21875 48.1875 22.15625 43.53125 
Q 18.109375 38.875 18.109375 30.90625 
L 18.109375 0 
L 9.078125 0 
L 9.078125 54.6875 
L 18.109375 54.6875 
L 18.109375 46.1875 
Q 21.1875 51.21875 25.484375 53.609375 
Q 29.78125 56 35.6875 56 
Q 41.65625 56 45.828125 52.96875 
Q 50 49.953125 52 44.1875 
z
" id="DejaVuSans-109"/>
      <path d="M 56.203125 29.59375 
L 56.203125 25.203125 
L 14.890625 25.203125 
Q 15.484375 15.921875 20.484375 11.0625 
Q 25.484375 6.203125 34.421875 6.203125 
Q 39.59375 6.203125 44.453125 7.46875 
Q 49.3125 8.734375 54.109375 11.28125 
L 54.109375 2.78125 
Q 49.265625 0.734375 44.1875 -0.34375 
Q 39.109375 -1.421875 33.890625 -1.421875 
Q 20.796875 -1.421875 13.15625 6.1875 
Q 5.515625 13.8125 5.515625 26.8125 
Q 5.515625 40.234375 12.765625 48.109375 
Q 20.015625 56 32.328125 56 
Q 43.359375 56 49.78125 48.890625 
Q 56.203125 41.796875 56.203125 29.59375 
z
M 47.21875 32.234375 
Q 47.125 39.59375 43.09375 43.984375 
Q 39.0625 48.390625 32.421875 48.390625 
Q 24.90625 48.390625 20.390625 44.140625 
Q 15.875 39.890625 15.1875 32.171875 
z
" id="DejaVuSans-101"/>
     </defs>
     <g transform="translate(460.896094 233.097188)scale(0.22 -0.22)">
      <use xlink:href="#DejaVuSans-84"/>
      <use x="57.958984" xlink:href="#DejaVuSans-105"/>
      <use x="85.742188" xlink:href="#DejaVuSans-109"/>
      <use x="183.154297" xlink:href="#DejaVuSans-101"/>
     </g>
    </g>
   </g>
   <g id="matplotlib.axis_2">
    <g id="ytick_1">
     <g id="line2d_11">
      <path clip-path="url(#p2643c71399)" d="M 122.42 168.275 
L 853.2 168.275 
" style="fill:none;stroke:#b0b0b0;stroke-linecap:square;stroke-width:0.8;"/>
     </g>
     <g id="line2d_12">
      <defs>
       <path d="M 0 0 
L -3.5 0 
" id="mef52bb2fc8" style="stroke:#000000;stroke-width:0.8;"/>
      </defs>
      <g>
       <use style="stroke:#000000;stroke-width:0.8;" x="122.42" xlink:href="#mef52bb2fc8" y="168.275"/>
      </g>
     </g>
     <g id="text_7">
      <!-- Task_1 -->
      <defs>
       <path d="M 34.28125 27.484375 
Q 23.390625 27.484375 19.1875 25 
Q 14.984375 22.515625 14.984375 16.5 
Q 14.984375 11.71875 18.140625 8.90625 
Q 21.296875 6.109375 26.703125 6.109375 
Q 34.1875 6.109375 38.703125 11.40625 
Q 43.21875 16.703125 43.21875 25.484375 
L 43.21875 27.484375 
z
M 52.203125 31.203125 
L 52.203125 0 
L 43.21875 0 
L 43.21875 8.296875 
Q 40.140625 3.328125 35.546875 0.953125 
Q 30.953125 -1.421875 24.3125 -1.421875 
Q 15.921875 -1.421875 10.953125 3.296875 
Q 6 8.015625 6 15.921875 
Q 6 25.140625 12.171875 29.828125 
Q 18.359375 34.515625 30.609375 34.515625 
L 43.21875 34.515625 
L 43.21875 35.40625 
Q 43.21875 41.609375 39.140625 45 
Q 35.0625 48.390625 27.6875 48.390625 
Q 23 48.390625 18.546875 47.265625 
Q 14.109375 46.140625 10.015625 43.890625 
L 10.015625 52.203125 
Q 14.9375 54.109375 19.578125 55.046875 
Q 24.21875 56 28.609375 56 
Q 40.484375 56 46.34375 49.84375 
Q 52.203125 43.703125 52.203125 31.203125 
z
" id="DejaVuSans-97"/>
       <path d="M 44.28125 53.078125 
L 44.28125 44.578125 
Q 40.484375 46.53125 36.375 47.5 
Q 32.28125 48.484375 27.875 48.484375 
Q 21.1875 48.484375 17.84375 46.4375 
Q 14.5 44.390625 14.5 40.28125 
Q 14.5 37.15625 16.890625 35.375 
Q 19.28125 33.59375 26.515625 31.984375 
L 29.59375 31.296875 
Q 39.15625 29.25 43.1875 25.515625 
Q 47.21875 21.78125 47.21875 15.09375 
Q 47.21875 7.46875 41.1875 3.015625 
Q 35.15625 -1.421875 24.609375 -1.421875 
Q 20.21875 -1.421875 15.453125 -0.5625 
Q 10.6875 0.296875 5.421875 2 
L 5.421875 11.28125 
Q 10.40625 8.6875 15.234375 7.390625 
Q 20.0625 6.109375 24.8125 6.109375 
Q 31.15625 6.109375 34.5625 8.28125 
Q 37.984375 10.453125 37.984375 14.40625 
Q 37.984375 18.0625 35.515625 20.015625 
Q 33.0625 21.96875 24.703125 23.78125 
L 21.578125 24.515625 
Q 13.234375 26.265625 9.515625 29.90625 
Q 5.8125 33.546875 5.8125 39.890625 
Q 5.8125 47.609375 11.28125 51.796875 
Q 16.75 56 26.8125 56 
Q 31.78125 56 36.171875 55.265625 
Q 40.578125 54.546875 44.28125 53.078125 
z
" id="DejaVuSans-115"/>
       <path d="M 9.078125 75.984375 
L 18.109375 75.984375 
L 18.109375 31.109375 
L 44.921875 54.6875 
L 56.390625 54.6875 
L 27.390625 29.109375 
L 57.625 0 
L 45.90625 0 
L 18.109375 26.703125 
L 18.109375 0 
L 9.078125 0 
z
" id="DejaVuSans-107"/>
       <path d="M 50.984375 -16.609375 
L 50.984375 -23.578125 
L -0.984375 -23.578125 
L -0.984375 -16.609375 
z
" id="DejaVuSans-95"/>
       <path d="M 12.40625 8.296875 
L 28.515625 8.296875 
L 28.515625 63.921875 
L 10.984375 60.40625 
L 10.984375 69.390625 
L 28.421875 72.90625 
L 38.28125 72.90625 
L 38.28125 8.296875 
L 54.390625 8.296875 
L 54.390625 0 
L 12.40625 0 
z
" id="DejaVuSans-49"/>
      </defs>
      <g transform="translate(56.112813 175.113594)scale(0.18 -0.18)">
       <use xlink:href="#DejaVuSans-84"/>
       <use x="44.583984" xlink:href="#DejaVuSans-97"/>
       <use x="105.863281" xlink:href="#DejaVuSans-115"/>
       <use x="157.962891" xlink:href="#DejaVuSans-107"/>
       <use x="215.873047" xlink:href="#DejaVuSans-95"/>
       <use x="265.873047" xlink:href="#DejaVuSans-49"/>
      </g>
     </g>
    </g>
    <g id="ytick_2">
     <g id="line2d_13">
      <path clip-path="url(#p2643c71399)" d="M 122.42 128.905 
L 853.2 128.905 
" style="fill:none;stroke:#b0b0b0;stroke-linecap:square;stroke-width:0.8;"/>
     </g>
     <g id="line2d_14">
      <g>
       <use style="stroke:#000000;stroke-width:0.8;" x="122.42" xlink:href="#mef52bb2fc8" y="128.905"/>
      </g>
     </g>
     <g id="text_8">
      <!-- Task_2 -->
      <g transform="translate(56.112813 135.743594)scale(0.18 -0.18)">
       <use xlink:href="#DejaVuSans-84"/>
       <use x="44.583984" xlink:href="#DejaVuSans-97"/>
       <use x="105.863281" xlink:href="#DejaVuSans-115"/>
       <use x="157.962891" xlink:href="#DejaVuSans-107"/>
       <use x="215.873047" xlink:href="#DejaVuSans-95"/>
       <use x="265.873047" xlink:href="#DejaVuSans-50"/>
      </g>
     </g>
    </g>
    <g id="ytick_3">
     <g id="line2d_15">
      <path clip-path="url(#p2643c71399)" d="M 122.42 89.535 
L 853.2 89.535 
" style="fill:none;stroke:#b0b0b0;stroke-linecap:square;stroke-width:0.8;"/>
     </g>
     <g id="line2d_16">
      <g>
       <use style="stroke:#000000;stroke-width:0.8;" x="122.42" xlink:href="#mef52bb2fc8" y="89.535"/>
      </g>
     </g>
     <g id="text_9">
      <!-- Task_3 -->
      <defs>
       <path d="M 40.578125 39.3125 
Q 47.65625 37.796875 51.625 33 
Q 55.609375 28.21875 55.609375 21.1875 
Q 55.609375 10.40625 48.1875 4.484375 
Q 40.765625 -1.421875 27.09375 -1.421875 
Q 22.515625 -1.421875 17.65625 -0.515625 
Q 12.796875 0.390625 7.625 2.203125 
L 7.625 11.71875 
Q 11.71875 9.328125 16.59375 8.109375 
Q 21.484375 6.890625 26.8125 6.890625 
Q 36.078125 6.890625 40.9375 10.546875 
Q 45.796875 14.203125 45.796875 21.1875 
Q 45.796875 27.640625 41.28125 31.265625 
Q 36.765625 34.90625 28.71875 34.90625 
L 20.21875 34.90625 
L 20.21875 43.015625 
L 29.109375 43.015625 
Q 36.375 43.015625 40.234375 45.921875 
Q 44.09375 48.828125 44.09375 54.296875 
Q 44.09375 59.90625 40.109375 62.90625 
Q 36.140625 65.921875 28.71875 65.921875 
Q 24.65625 65.921875 20.015625 65.03125 
Q 15.375 64.15625 9.8125 62.3125 
L 9.8125 71.09375 
Q 15.4375 72.65625 20.34375 73.4375 
Q 25.25 74.21875 29.59375 74.21875 
Q 40.828125 74.21875 47.359375 69.109375 
Q 53.90625 64.015625 53.90625 55.328125 
Q 53.90625 49.265625 50.4375 45.09375 
Q 46.96875 40.921875 40.578125 39.3125 
z
" id="DejaVuSans-51"/>
      </defs>
      <g transform="translate(56.112813 96.373594)scale(0.18 -0.18)">
       <use xlink:href="#DejaVuSans-84"/>
       <use x="44.583984" xlink:href="#DejaVuSans-97"/>
       <use x="105.863281" xlink:href="#DejaVuSans-115"/>
       <use x="157.962891" xlink:href="#DejaVuSans-107"/>
       <use x="215.873047" xlink:href="#DejaVuSans-95"/>
       <use x="265.873047" xlink:href="#DejaVuSans-51"/>
      </g>
     </g>
    </g>
    <g id="ytick_4">
     <g id="line2d_17">
      <path clip-path="url(#p2643c71399)" d="M 122.42 50.165 
L 853.2 50.165 
" style="fill:none;stroke:#b0b0b0;stroke-linecap:square;stroke-width:0.8;"/>
     </g>
     <g id="line2d_18">
      <g>
       <use style="stroke:#000000;stroke-width:0.8;" x="122.42" xlink:href="#mef52bb2fc8" y="50.165"/>
      </g>
     </g>
     <g id="text_10">
      <!-- Task_D -->
      <defs>
       <path d="M 19.671875 64.796875 
L 19.671875 8.109375 
L 31.59375 8.109375 
Q 46.6875 8.109375 53.6875 14.9375 
Q 60.6875 21.78125 60.6875 36.53125 
Q 60.6875 51.171875 53.6875 57.984375 
Q 46.6875 64.796875 31.59375 64.796875 
z
M 9.8125 72.90625 
L 30.078125 72.90625 
Q 51.265625 72.90625 61.171875 64.09375 
Q 71.09375 55.28125 71.09375 36.53125 
Q 71.09375 17.671875 61.125 8.828125 
Q 51.171875 0 30.078125 0 
L 9.8125 0 
z
" id="DejaVuSans-68"/>
      </defs>
      <g transform="translate(53.705313 57.003594)scale(0.18 -0.18)">
       <use xlink:href="#DejaVuSans-84"/>
       <use x="44.583984" xlink:href="#DejaVuSans-97"/>
       <use x="105.863281" xlink:href="#DejaVuSans-115"/>
       <use x="157.962891" xlink:href="#DejaVuSans-107"/>
       <use x="215.873047" xlink:href="#DejaVuSans-95"/>
       <use x="265.873047" xlink:href="#DejaVuSans-68"/>
      </g>
     </g>
    </g>
    <g id="text_11">
     <!-- Task -->
     <g transform="translate(45.13 132.964531)rotate(-90)scale(0.22 -0.22)">
      <use xlink:href="#DejaVuSans-84"/>
      <use x="44.583984" xlink:href="#DejaVuSans-97"/>
      <use x="105.863281" xlink:href="#DejaVuSans-115"/>
      <use x="157.962891" xlink:href="#DejaVuSans-107"/>
     </g>
    </g>
   </g>
   <g id="line2d_19">
    <path clip-path="url(#p2643c71399)" d="M 402.999942 168.275 
L 721.03766 168.275 
" style="fill:none;stroke:#ff7f0e;stroke-width:25;"/>
   </g>
   <g id="line2d_20">
    <path clip-path="url(#p2643c71399)" d="M 721.03766 168.275 
L 791.712708 168.275 
" style="fill:none;stroke:#2ca02c;stroke-width:25;"/>
   </g>
   <g id="line2d_21">
    <path clip-path="url(#p2643c71399)" d="M 155.637273 128.905 
L 226.312321 128.905 
" style="fill:none;stroke:#ff7f0e;stroke-width:25;"/>
   </g>
   <g id="line2d_22">
    <path clip-path="url(#p2643c71399)" d="M 438.337466 128.905 
L 579.687563 128.905 
" style="fill:none;stroke:#2ca02c;stroke-width:25;"/>
   </g>
   <g id="line2d_23">
    <path clip-path="url(#p2643c71399)" d="M 579.687563 128.905 
L 819.982727 128.905 
" style="fill:none;stroke:#d62728;stroke-width:25;"/>
   </g>
   <g id="line2d_24">
    <path clip-path="url(#p2643c71399)" d="M 353.527408 89.535 
L 438.337466 89.535 
" style="fill:none;stroke:#2ca02c;stroke-width:25;"/>
   </g>
   <g id="line2d_25">
    <path clip-path="url(#p2643c71399)" d="M 155.637273 89.535 
L 353.527408 89.535 
" style="fill:none;stroke:#d62728;stroke-width:25;"/>
   </g>
   <g id="line2d_26">
    <path clip-path="url(#p2643c71399)" d="M 261.649845 50.165 
L 402.999942 50.165 
" style="fill:none;stroke:#ff7f0e;stroke-width:25;"/>
   </g>
   <g id="line2d_27">
    <path clip-path="url(#p2643c71399)" d="M 819.982727 187.96 
L 819.982727 30.48 
" style="fill:none;stroke:#ff0000;stroke-dasharray:5.55,2.4;stroke-dashoffset:0;stroke-width:1.5;"/>
   </g>
   <g id="patch_3">
    <path d="M 122.42 187.96 
L 122.42 30.48 
" style="fill:none;stroke:#000000;stroke-linecap:square;stroke-linejoin:miter;stroke-width:0.8;"/>
   </g>
   <g id="patch_4">
    <path d="M 853.2 187.96 
L 853.2 30.48 
" style="fill:none;stroke:#000000;stroke-linecap:square;stroke-linejoin:miter;stroke-width:0.8;"/>
   </g>
   <g id="patch_5">
    <path d="M 122.42 187.96 
L 853.2 187.96 
" style="fill:none;stroke:#000000;stroke-linecap:square;stroke-linejoin:miter;stroke-width:0.8;"/>
   </g>
   <g id="patch_6">
    <path d="M 122.42 30.48 
L 853.2 30.48 
" style="fill:none;stroke:#000000;stroke-linecap:square;stroke-linejoin:miter;stroke-width:0.8;"/>
   </g>
   <g id="text_12">
    <!-- Server_1 -->
    <defs>
     <path d="M 59.90625 70.609375 
L 59.90625 55.171875 
Q 53.90625 57.859375 48.1875 59.21875 
Q 42.484375 60.59375 37.40625 60.59375 
Q 30.671875 60.59375 27.4375 58.734375 
Q 24.21875 56.890625 24.21875 52.984375 
Q 24.21875 50.046875 26.390625 48.40625 
Q 28.5625 46.78125 34.28125 45.609375 
L 42.28125 44 
Q 54.4375 41.546875 59.5625 36.5625 
Q 64.703125 31.59375 64.703125 22.40625 
Q 64.703125 10.359375 57.546875 4.46875 
Q 50.390625 -1.421875 35.6875 -1.421875 
Q 28.765625 -1.421875 21.78125 -0.09375 
Q 14.796875 1.21875 7.8125 3.8125 
L 7.8125 19.671875 
Q 14.796875 15.96875 21.3125 14.078125 
Q 27.828125 12.203125 33.890625 12.203125 
Q 40.046875 12.203125 43.3125 14.25 
Q 46.578125 16.3125 46.578125 20.125 
Q 46.578125 23.53125 44.359375 25.390625 
Q 42.140625 27.25 35.5 28.71875 
L 28.21875 30.328125 
Q 17.28125 32.671875 12.21875 37.796875 
Q 7.171875 42.921875 7.171875 51.609375 
Q 7.171875 62.5 14.203125 68.359375 
Q 21.234375 74.21875 34.421875 74.21875 
Q 40.4375 74.21875 46.78125 73.3125 
Q 53.125 72.40625 59.90625 70.609375 
z
" id="DejaVuSans-Bold-83"/>
     <path d="M 62.984375 27.484375 
L 62.984375 22.515625 
L 22.125 22.515625 
Q 22.75 16.359375 26.5625 13.28125 
Q 30.375 10.203125 37.203125 10.203125 
Q 42.71875 10.203125 48.5 11.84375 
Q 54.296875 13.484375 60.40625 16.796875 
L 60.40625 3.328125 
Q 54.203125 0.984375 48 -0.21875 
Q 41.796875 -1.421875 35.59375 -1.421875 
Q 20.75 -1.421875 12.515625 6.125 
Q 4.296875 13.671875 4.296875 27.296875 
Q 4.296875 40.671875 12.375 48.328125 
Q 20.453125 56 34.625 56 
Q 47.515625 56 55.25 48.234375 
Q 62.984375 40.484375 62.984375 27.484375 
z
M 45.015625 33.296875 
Q 45.015625 38.28125 42.109375 41.328125 
Q 39.203125 44.390625 34.515625 44.390625 
Q 29.4375 44.390625 26.265625 41.53125 
Q 23.09375 38.671875 22.3125 33.296875 
z
" id="DejaVuSans-Bold-101"/>
     <path d="M 49.03125 39.796875 
Q 46.734375 40.875 44.453125 41.375 
Q 42.1875 41.890625 39.890625 41.890625 
Q 33.15625 41.890625 29.515625 37.5625 
Q 25.875 33.25 25.875 25.203125 
L 25.875 0 
L 8.40625 0 
L 8.40625 54.6875 
L 25.875 54.6875 
L 25.875 45.703125 
Q 29.25 51.078125 33.609375 53.53125 
Q 37.984375 56 44.09375 56 
Q 44.96875 56 45.984375 55.921875 
Q 47.015625 55.859375 48.96875 55.609375 
z
" id="DejaVuSans-Bold-114"/>
     <path d="M 1.515625 54.6875 
L 19 54.6875 
L 32.625 16.890625 
L 46.1875 54.6875 
L 63.71875 54.6875 
L 42.1875 0 
L 23 0 
z
" id="DejaVuSans-Bold-118"/>
     <path d="M 50 -14.3125 
L 50 -23.578125 
L 0 -23.578125 
L 0 -14.3125 
z
" id="DejaVuSans-Bold-95"/>
     <path d="M 11.71875 12.984375 
L 28.328125 12.984375 
L 28.328125 60.109375 
L 11.28125 56.59375 
L 11.28125 69.390625 
L 28.21875 72.90625 
L 46.09375 72.90625 
L 46.09375 12.984375 
L 62.703125 12.984375 
L 62.703125 0 
L 11.71875 0 
z
" id="DejaVuSans-Bold-49"/>
    </defs>
    <g style="fill:#ffffff;" transform="translate(532.555051 171.313438)scale(0.12 -0.12)">
     <use xlink:href="#DejaVuSans-Bold-83"/>
     <use x="72.021484" xlink:href="#DejaVuSans-Bold-101"/>
     <use x="139.84375" xlink:href="#DejaVuSans-Bold-114"/>
     <use x="189.160156" xlink:href="#DejaVuSans-Bold-118"/>
     <use x="254.345703" xlink:href="#DejaVuSans-Bold-101"/>
     <use x="322.167969" xlink:href="#DejaVuSans-Bold-114"/>
     <use x="371.484375" xlink:href="#DejaVuSans-Bold-95"/>
     <use x="421.484375" xlink:href="#DejaVuSans-Bold-49"/>
    </g>
   </g>
   <g id="text_13">
    <!-- Server_2 -->
    <defs>
     <path d="M 28.8125 13.8125 
L 60.890625 13.8125 
L 60.890625 0 
L 7.90625 0 
L 7.90625 13.8125 
L 34.515625 37.3125 
Q 38.09375 40.53125 39.796875 43.609375 
Q 41.5 46.6875 41.5 50 
Q 41.5 55.125 38.0625 58.25 
Q 34.625 61.375 28.90625 61.375 
Q 24.515625 61.375 19.28125 59.5 
Q 14.0625 57.625 8.109375 53.90625 
L 8.109375 69.921875 
Q 14.453125 72.015625 20.65625 73.109375 
Q 26.859375 74.21875 32.8125 74.21875 
Q 45.90625 74.21875 53.15625 68.453125 
Q 60.40625 62.703125 60.40625 52.390625 
Q 60.40625 46.4375 57.328125 41.28125 
Q 54.25 36.140625 44.390625 27.484375 
z
" id="DejaVuSans-Bold-50"/>
    </defs>
    <g style="fill:#ffffff;" transform="translate(726.911434 171.313438)scale(0.12 -0.12)">
     <use xlink:href="#DejaVuSans-Bold-83"/>
     <use x="72.021484" xlink:href="#DejaVuSans-Bold-101"/>
     <use x="139.84375" xlink:href="#DejaVuSans-Bold-114"/>
     <use x="189.160156" xlink:href="#DejaVuSans-Bold-118"/>
     <use x="254.345703" xlink:href="#DejaVuSans-Bold-101"/>
     <use x="322.167969" xlink:href="#DejaVuSans-Bold-114"/>
     <use x="371.484375" xlink:href="#DejaVuSans-Bold-95"/>
     <use x="421.484375" xlink:href="#DejaVuSans-Bold-50"/>
    </g>
   </g>
   <g id="text_14">
    <!-- Server_1 -->
    <g style="fill:#ffffff;" transform="translate(161.511047 131.943438)scale(0.12 -0.12)">
     <use xlink:href="#DejaVuSans-Bold-83"/>
     <use x="72.021484" xlink:href="#DejaVuSans-Bold-101"/>
     <use x="139.84375" xlink:href="#DejaVuSans-Bold-114"/>
     <use x="189.160156" xlink:href="#DejaVuSans-Bold-118"/>
     <use x="254.345703" xlink:href="#DejaVuSans-Bold-101"/>
     <use x="322.167969" xlink:href="#DejaVuSans-Bold-114"/>
     <use x="371.484375" xlink:href="#DejaVuSans-Bold-95"/>
     <use x="421.484375" xlink:href="#DejaVuSans-Bold-49"/>
    </g>
   </g>
   <g id="text_15">
    <!-- Server_2 -->
    <g style="fill:#ffffff;" transform="translate(479.548765 131.943438)scale(0.12 -0.12)">
     <use xlink:href="#DejaVuSans-Bold-83"/>
     <use x="72.021484" xlink:href="#DejaVuSans-Bold-101"/>
     <use x="139.84375" xlink:href="#DejaVuSans-Bold-114"/>
     <use x="189.160156" xlink:href="#DejaVuSans-Bold-118"/>
     <use x="254.345703" xlink:href="#DejaVuSans-Bold-101"/>
     <use x="322.167969" xlink:href="#DejaVuSans-Bold-114"/>
     <use x="371.484375" xlink:href="#DejaVuSans-Bold-95"/>
     <use x="421.484375" xlink:href="#DejaVuSans-Bold-50"/>
    </g>
   </g>
   <g id="text_16">
    <!-- Server_3 -->
    <defs>
     <path d="M 46.578125 39.3125 
Q 53.953125 37.40625 57.78125 32.6875 
Q 61.625 27.984375 61.625 20.703125 
Q 61.625 9.859375 53.3125 4.21875 
Q 45.015625 -1.421875 29.109375 -1.421875 
Q 23.484375 -1.421875 17.84375 -0.515625 
Q 12.203125 0.390625 6.6875 2.203125 
L 6.6875 16.703125 
Q 11.96875 14.0625 17.15625 12.71875 
Q 22.359375 11.375 27.390625 11.375 
Q 34.859375 11.375 38.84375 13.953125 
Q 42.828125 16.546875 42.828125 21.390625 
Q 42.828125 26.375 38.75 28.9375 
Q 34.671875 31.5 26.703125 31.5 
L 19.1875 31.5 
L 19.1875 43.609375 
L 27.09375 43.609375 
Q 34.1875 43.609375 37.640625 45.828125 
Q 41.109375 48.046875 41.109375 52.59375 
Q 41.109375 56.78125 37.734375 59.078125 
Q 34.375 61.375 28.21875 61.375 
Q 23.6875 61.375 19.046875 60.34375 
Q 14.40625 59.328125 9.8125 57.328125 
L 9.8125 71.09375 
Q 15.375 72.65625 20.84375 73.4375 
Q 26.3125 74.21875 31.59375 74.21875 
Q 45.796875 74.21875 52.84375 69.546875 
Q 59.90625 64.890625 59.90625 55.515625 
Q 59.90625 49.125 56.53125 45.046875 
Q 53.171875 40.96875 46.578125 39.3125 
z
" id="DejaVuSans-Bold-51"/>
    </defs>
    <g style="fill:#ffffff;" transform="translate(670.371395 131.943438)scale(0.12 -0.12)">
     <use xlink:href="#DejaVuSans-Bold-83"/>
     <use x="72.021484" xlink:href="#DejaVuSans-Bold-101"/>
     <use x="139.84375" xlink:href="#DejaVuSans-Bold-114"/>
     <use x="189.160156" xlink:href="#DejaVuSans-Bold-118"/>
     <use x="254.345703" xlink:href="#DejaVuSans-Bold-101"/>
     <use x="322.167969" xlink:href="#DejaVuSans-Bold-114"/>
     <use x="371.484375" xlink:href="#DejaVuSans-Bold-95"/>
     <use x="421.484375" xlink:href="#DejaVuSans-Bold-51"/>
    </g>
   </g>
   <g id="text_17">
    <!-- Server_2 -->
    <g style="fill:#ffffff;" transform="translate(366.468687 92.573438)scale(0.12 -0.12)">
     <use xlink:href="#DejaVuSans-Bold-83"/>
     <use x="72.021484" xlink:href="#DejaVuSans-Bold-101"/>
     <use x="139.84375" xlink:href="#DejaVuSans-Bold-114"/>
     <use x="189.160156" xlink:href="#DejaVuSans-Bold-118"/>
     <use x="254.345703" xlink:href="#DejaVuSans-Bold-101"/>
     <use x="322.167969" xlink:href="#DejaVuSans-Bold-114"/>
     <use x="371.484375" xlink:href="#DejaVuSans-Bold-95"/>
     <use x="421.484375" xlink:href="#DejaVuSans-Bold-50"/>
    </g>
   </g>
   <g id="text_18">
    <!-- Server_3 -->
    <g style="fill:#ffffff;" transform="translate(225.11859 92.573438)scale(0.12 -0.12)">
     <use xlink:href="#DejaVuSans-Bold-83"/>
     <use x="72.021484" xlink:href="#DejaVuSans-Bold-101"/>
     <use x="139.84375" xlink:href="#DejaVuSans-Bold-114"/>
     <use x="189.160156" xlink:href="#DejaVuSans-Bold-118"/>
     <use x="254.345703" xlink:href="#DejaVuSans-Bold-101"/>
     <use x="322.167969" xlink:href="#DejaVuSans-Bold-114"/>
     <use x="371.484375" xlink:href="#DejaVuSans-Bold-95"/>
     <use x="421.484375" xlink:href="#DejaVuSans-Bold-51"/>
    </g>
   </g>
   <g id="text_19">
    <!-- Server_1 -->
    <g style="fill:#ffffff;" transform="translate(302.861144 53.203438)scale(0.12 -0.12)">
     <use xlink:href="#DejaVuSans-Bold-83"/>
     <use x="72.021484" xlink:href="#DejaVuSans-Bold-101"/>
     <use x="139.84375" xlink:href="#DejaVuSans-Bold-114"/>
     <use x="189.160156" xlink:href="#DejaVuSans-Bold-118"/>
     <use x="254.345703" xlink:href="#DejaVuSans-Bold-101"/>
     <use x="322.167969" xlink:href="#DejaVuSans-Bold-114"/>
     <use x="371.484375" xlink:href="#DejaVuSans-Bold-95"/>
     <use x="421.484375" xlink:href="#DejaVuSans-Bold-49"/>
    </g>
   </g>
   <g id="text_20">
    <!-- 94.0 -->
    <defs>
     <path d="M 10.984375 1.515625 
L 10.984375 10.5 
Q 14.703125 8.734375 18.5 7.8125 
Q 22.3125 6.890625 25.984375 6.890625 
Q 35.75 6.890625 40.890625 13.453125 
Q 46.046875 20.015625 46.78125 33.40625 
Q 43.953125 29.203125 39.59375 26.953125 
Q 35.25 24.703125 29.984375 24.703125 
Q 19.046875 24.703125 12.671875 31.3125 
Q 6.296875 37.9375 6.296875 49.421875 
Q 6.296875 60.640625 12.9375 67.421875 
Q 19.578125 74.21875 30.609375 74.21875 
Q 43.265625 74.21875 49.921875 64.515625 
Q 56.59375 54.828125 56.59375 36.375 
Q 56.59375 19.140625 48.40625 8.859375 
Q 40.234375 -1.421875 26.421875 -1.421875 
Q 22.703125 -1.421875 18.890625 -0.6875 
Q 15.09375 0.046875 10.984375 1.515625 
z
M 30.609375 32.421875 
Q 37.25 32.421875 41.125 36.953125 
Q 45.015625 41.5 45.015625 49.421875 
Q 45.015625 57.28125 41.125 61.84375 
Q 37.25 66.40625 30.609375 66.40625 
Q 23.96875 66.40625 20.09375 61.84375 
Q 16.21875 57.28125 16.21875 49.421875 
Q 16.21875 41.5 20.09375 36.953125 
Q 23.96875 32.421875 30.609375 32.421875 
z
" id="DejaVuSans-57"/>
     <path d="M 10.6875 12.40625 
L 21 12.40625 
L 21 0 
L 10.6875 0 
z
" id="DejaVuSans-46"/>
    </defs>
    <g transform="translate(806.623352 204.952125)scale(0.12 -0.12)">
     <use xlink:href="#DejaVuSans-57"/>
     <use x="63.623047" xlink:href="#DejaVuSans-52"/>
     <use x="127.246094" xlink:href="#DejaVuSans-46"/>
     <use x="159.033203" xlink:href="#DejaVuSans-48"/>
    </g>
   </g>
   <g id="text_21">
    <!-- Task Schedule -->
    <defs>
     <path d="M 0.484375 72.90625 
L 67.671875 72.90625 
L 67.671875 58.6875 
L 43.5 58.6875 
L 43.5 0 
L 24.703125 0 
L 24.703125 58.6875 
L 0.484375 58.6875 
z
" id="DejaVuSans-Bold-84"/>
     <path d="M 32.90625 24.609375 
Q 27.4375 24.609375 24.671875 22.75 
Q 21.921875 20.90625 21.921875 17.28125 
Q 21.921875 13.96875 24.140625 12.078125 
Q 26.375 10.203125 30.328125 10.203125 
Q 35.25 10.203125 38.625 13.734375 
Q 42 17.28125 42 22.609375 
L 42 24.609375 
z
M 59.625 31.203125 
L 59.625 0 
L 42 0 
L 42 8.109375 
Q 38.484375 3.125 34.078125 0.84375 
Q 29.6875 -1.421875 23.390625 -1.421875 
Q 14.890625 -1.421875 9.59375 3.53125 
Q 4.296875 8.5 4.296875 16.40625 
Q 4.296875 26.03125 10.90625 30.515625 
Q 17.53125 35.015625 31.6875 35.015625 
L 42 35.015625 
L 42 36.375 
Q 42 40.53125 38.71875 42.453125 
Q 35.453125 44.390625 28.515625 44.390625 
Q 22.90625 44.390625 18.0625 43.265625 
Q 13.234375 42.140625 9.078125 39.890625 
L 9.078125 53.21875 
Q 14.703125 54.59375 20.359375 55.296875 
Q 26.03125 56 31.6875 56 
Q 46.484375 56 53.046875 50.171875 
Q 59.625 44.34375 59.625 31.203125 
z
" id="DejaVuSans-Bold-97"/>
     <path d="M 51.125 52.984375 
L 51.125 39.703125 
Q 45.515625 42.046875 40.28125 43.21875 
Q 35.0625 44.390625 30.421875 44.390625 
Q 25.4375 44.390625 23.015625 43.140625 
Q 20.609375 41.890625 20.609375 39.3125 
Q 20.609375 37.203125 22.4375 36.078125 
Q 24.265625 34.96875 29 34.421875 
L 32.078125 33.984375 
Q 45.515625 32.28125 50.140625 28.375 
Q 54.78125 24.46875 54.78125 16.109375 
Q 54.78125 7.375 48.328125 2.96875 
Q 41.890625 -1.421875 29.109375 -1.421875 
Q 23.6875 -1.421875 17.890625 -0.5625 
Q 12.109375 0.296875 6 2 
L 6 15.28125 
Q 11.234375 12.75 16.71875 11.46875 
Q 22.21875 10.203125 27.875 10.203125 
Q 33.015625 10.203125 35.59375 11.609375 
Q 38.1875 13.03125 38.1875 15.828125 
Q 38.1875 18.171875 36.40625 19.3125 
Q 34.625 20.453125 29.296875 21.09375 
L 26.21875 21.484375 
Q 14.546875 22.953125 9.859375 26.90625 
Q 5.171875 30.859375 5.171875 38.921875 
Q 5.171875 47.609375 11.125 51.796875 
Q 17.09375 56 29.390625 56 
Q 34.234375 56 39.546875 55.265625 
Q 44.875 54.546875 51.125 52.984375 
z
" id="DejaVuSans-Bold-115"/>
     <path d="M 8.40625 75.984375 
L 25.875 75.984375 
L 25.875 34.625 
L 46 54.6875 
L 66.3125 54.6875 
L 39.59375 29.59375 
L 68.40625 0 
L 47.21875 0 
L 25.875 22.796875 
L 25.875 0 
L 8.40625 0 
z
" id="DejaVuSans-Bold-107"/>
     <path id="DejaVuSans-Bold-32"/>
     <path d="M 52.59375 52.984375 
L 52.59375 38.71875 
Q 49.03125 41.15625 45.4375 42.328125 
Q 41.84375 43.5 37.984375 43.5 
Q 30.671875 43.5 26.59375 39.234375 
Q 22.515625 34.96875 22.515625 27.296875 
Q 22.515625 19.625 26.59375 15.34375 
Q 30.671875 11.078125 37.984375 11.078125 
Q 42.09375 11.078125 45.78125 12.296875 
Q 49.46875 13.53125 52.59375 15.921875 
L 52.59375 1.609375 
Q 48.484375 0.09375 44.265625 -0.65625 
Q 40.046875 -1.421875 35.796875 -1.421875 
Q 21 -1.421875 12.640625 6.171875 
Q 4.296875 13.765625 4.296875 27.296875 
Q 4.296875 40.828125 12.640625 48.40625 
Q 21 56 35.796875 56 
Q 40.09375 56 44.265625 55.25 
Q 48.4375 54.5 52.59375 52.984375 
z
" id="DejaVuSans-Bold-99"/>
     <path d="M 63.375 33.296875 
L 63.375 0 
L 45.796875 0 
L 45.796875 5.421875 
L 45.796875 25.390625 
Q 45.796875 32.5625 45.484375 35.25 
Q 45.171875 37.9375 44.390625 39.203125 
Q 43.359375 40.921875 41.59375 41.875 
Q 39.84375 42.828125 37.59375 42.828125 
Q 32.125 42.828125 29 38.59375 
Q 25.875 34.375 25.875 26.90625 
L 25.875 0 
L 8.40625 0 
L 8.40625 75.984375 
L 25.875 75.984375 
L 25.875 46.6875 
Q 29.828125 51.46875 34.265625 53.734375 
Q 38.71875 56 44.09375 56 
Q 53.5625 56 58.46875 50.1875 
Q 63.375 44.390625 63.375 33.296875 
z
" id="DejaVuSans-Bold-104"/>
     <path d="M 45.609375 46.6875 
L 45.609375 75.984375 
L 63.1875 75.984375 
L 63.1875 0 
L 45.609375 0 
L 45.609375 7.90625 
Q 42 3.078125 37.640625 0.828125 
Q 33.296875 -1.421875 27.59375 -1.421875 
Q 17.484375 -1.421875 10.984375 6.609375 
Q 4.5 14.65625 4.5 27.296875 
Q 4.5 39.9375 10.984375 47.96875 
Q 17.484375 56 27.59375 56 
Q 33.25 56 37.625 53.734375 
Q 42 51.46875 45.609375 46.6875 
z
M 34.078125 11.28125 
Q 39.703125 11.28125 42.65625 15.375 
Q 45.609375 19.484375 45.609375 27.296875 
Q 45.609375 35.109375 42.65625 39.203125 
Q 39.703125 43.3125 34.078125 43.3125 
Q 28.515625 43.3125 25.5625 39.203125 
Q 22.609375 35.109375 22.609375 27.296875 
Q 22.609375 19.484375 25.5625 15.375 
Q 28.515625 11.28125 34.078125 11.28125 
z
" id="DejaVuSans-Bold-100"/>
     <path d="M 7.8125 21.296875 
L 7.8125 54.6875 
L 25.390625 54.6875 
L 25.390625 49.21875 
Q 25.390625 44.78125 25.34375 38.0625 
Q 25.296875 31.34375 25.296875 29.109375 
Q 25.296875 22.515625 25.640625 19.609375 
Q 25.984375 16.703125 26.8125 15.375 
Q 27.875 13.671875 29.609375 12.734375 
Q 31.34375 11.8125 33.59375 11.8125 
Q 39.0625 11.8125 42.1875 16.015625 
Q 45.3125 20.21875 45.3125 27.6875 
L 45.3125 54.6875 
L 62.796875 54.6875 
L 62.796875 0 
L 45.3125 0 
L 45.3125 7.90625 
Q 41.359375 3.125 36.9375 0.84375 
Q 32.515625 -1.421875 27.203125 -1.421875 
Q 17.71875 -1.421875 12.765625 4.390625 
Q 7.8125 10.203125 7.8125 21.296875 
z
" id="DejaVuSans-Bold-117"/>
     <path d="M 8.40625 75.984375 
L 25.875 75.984375 
L 25.875 0 
L 8.40625 0 
z
" id="DejaVuSans-Bold-108"/>
    </defs>
    <g transform="translate(415.914063 24.48)scale(0.18 -0.18)">
     <use xlink:href="#DejaVuSans-Bold-84"/>
     <use x="55.337891" xlink:href="#DejaVuSans-Bold-97"/>
     <use x="122.818359" xlink:href="#DejaVuSans-Bold-115"/>
     <use x="182.339844" xlink:href="#DejaVuSans-Bold-107"/>
     <use x="248.84375" xlink:href="#DejaVuSans-Bold-32"/>
     <use x="283.658203" xlink:href="#DejaVuSans-Bold-83"/>
     <use x="355.679688" xlink:href="#DejaVuSans-Bold-99"/>
     <use x="414.957031" xlink:href="#DejaVuSans-Bold-104"/>
     <use x="486.148438" xlink:href="#DejaVuSans-Bold-101"/>
     <use x="553.970703" xlink:href="#DejaVuSans-Bold-100"/>
     <use x="625.552734" xlink:href="#DejaVuSans-Bold-117"/>
     <use x="696.744141" xlink:href="#DejaVuSans-Bold-108"/>
     <use x="731.021484" xlink:href="#DejaVuSans-Bold-101"/>
    </g>
   </g>
  </g>
  <g id="axes_2">
   <g id="patch_7">
    <path d="M 122.42 425.56 
L 853.2 425.56 
L 853.2 268.08 
L 122.42 268.08 
z
" style="fill:#ffffff;"/>
   </g>
   <g id="matplotlib.axis_3">
    <g id="xtick_6">
     <g id="line2d_28">
      <path clip-path="url(#p30b958cf7e)" d="M 155.637273 425.56 
L 155.637273 268.08 
" style="fill:none;stroke:#b0b0b0;stroke-linecap:square;stroke-width:0.8;"/>
     </g>
     <g id="line2d_29">
      <g>
       <use style="stroke:#000000;stroke-width:0.8;" x="155.637273" xlink:href="#m87c79b80d1" y="425.56"/>
      </g>
     </g>
     <g id="text_22">
      <!-- 0 -->
      <g transform="translate(149.911023 446.237188)scale(0.18 -0.18)">
       <use xlink:href="#DejaVuSans-48"/>
      </g>
     </g>
    </g>
    <g id="xtick_7">
     <g id="line2d_30">
      <path clip-path="url(#p30b958cf7e)" d="M 296.987369 425.56 
L 296.987369 268.08 
" style="fill:none;stroke:#b0b0b0;stroke-linecap:square;stroke-width:0.8;"/>
     </g>
     <g id="line2d_31">
      <g>
       <use style="stroke:#000000;stroke-width:0.8;" x="296.987369" xlink:href="#m87c79b80d1" y="425.56"/>
      </g>
     </g>
     <g id="text_23">
      <!-- 20 -->
      <g transform="translate(285.534869 446.237188)scale(0.18 -0.18)">
       <use xlink:href="#DejaVuSans-50"/>
       <use x="63.623047" xlink:href="#DejaVuSans-48"/>
      </g>
     </g>
    </g>
    <g id="xtick_8">
     <g id="line2d_32">
      <path clip-path="url(#p30b958cf7e)" d="M 438.337466 425.56 
L 438.337466 268.08 
" style="fill:none;stroke:#b0b0b0;stroke-linecap:square;stroke-width:0.8;"/>
     </g>
     <g id="line2d_33">
      <g>
       <use style="stroke:#000000;stroke-width:0.8;" x="438.337466" xlink:href="#m87c79b80d1" y="425.56"/>
      </g>
     </g>
     <g id="text_24">
      <!-- 40 -->
      <g transform="translate(426.884966 446.237188)scale(0.18 -0.18)">
       <use xlink:href="#DejaVuSans-52"/>
       <use x="63.623047" xlink:href="#DejaVuSans-48"/>
      </g>
     </g>
    </g>
    <g id="xtick_9">
     <g id="line2d_34">
      <path clip-path="url(#p30b958cf7e)" d="M 579.687563 425.56 
L 579.687563 268.08 
" style="fill:none;stroke:#b0b0b0;stroke-linecap:square;stroke-width:0.8;"/>
     </g>
     <g id="line2d_35">
      <g>
       <use style="stroke:#000000;stroke-width:0.8;" x="579.687563" xlink:href="#m87c79b80d1" y="425.56"/>
      </g>
     </g>
     <g id="text_25">
      <!-- 60 -->
      <g transform="translate(568.235063 446.237188)scale(0.18 -0.18)">
       <use xlink:href="#DejaVuSans-54"/>
       <use x="63.623047" xlink:href="#DejaVuSans-48"/>
      </g>
     </g>
    </g>
    <g id="xtick_10">
     <g id="line2d_36">
      <path clip-path="url(#p30b958cf7e)" d="M 721.03766 425.56 
L 721.03766 268.08 
" style="fill:none;stroke:#b0b0b0;stroke-linecap:square;stroke-width:0.8;"/>
     </g>
     <g id="line2d_37">
      <g>
       <use style="stroke:#000000;stroke-width:0.8;" x="721.03766" xlink:href="#m87c79b80d1" y="425.56"/>
      </g>
     </g>
     <g id="text_26">
      <!-- 80 -->
      <g transform="translate(709.58516 446.237188)scale(0.18 -0.18)">
       <use xlink:href="#DejaVuSans-56"/>
       <use x="63.623047" xlink:href="#DejaVuSans-48"/>
      </g>
     </g>
    </g>
    <g id="text_27">
     <!-- Time -->
     <g transform="translate(460.896094 470.697187)scale(0.22 -0.22)">
      <use xlink:href="#DejaVuSans-84"/>
      <use x="57.958984" xlink:href="#DejaVuSans-105"/>
      <use x="85.742188" xlink:href="#DejaVuSans-109"/>
      <use x="183.154297" xlink:href="#DejaVuSans-101"/>
     </g>
    </g>
   </g>
   <g id="matplotlib.axis_4">
    <g id="ytick_5">
     <g id="line2d_38">
      <path clip-path="url(#p30b958cf7e)" d="M 122.42 399.313333 
L 853.2 399.313333 
" style="fill:none;stroke:#b0b0b0;stroke-linecap:square;stroke-width:0.8;"/>
     </g>
     <g id="line2d_39">
      <g>
       <use style="stroke:#000000;stroke-width:0.8;" x="122.42" xlink:href="#mef52bb2fc8" y="399.313333"/>
      </g>
     </g>
     <g id="text_28">
      <!-- Server_1 -->
      <defs>
       <path d="M 53.515625 70.515625 
L 53.515625 60.890625 
Q 47.90625 63.578125 42.921875 64.890625 
Q 37.9375 66.21875 33.296875 66.21875 
Q 25.25 66.21875 20.875 63.09375 
Q 16.5 59.96875 16.5 54.203125 
Q 16.5 49.359375 19.40625 46.890625 
Q 22.3125 44.4375 30.421875 42.921875 
L 36.375 41.703125 
Q 47.40625 39.59375 52.65625 34.296875 
Q 57.90625 29 57.90625 20.125 
Q 57.90625 9.515625 50.796875 4.046875 
Q 43.703125 -1.421875 29.984375 -1.421875 
Q 24.8125 -1.421875 18.96875 -0.25 
Q 13.140625 0.921875 6.890625 3.21875 
L 6.890625 13.375 
Q 12.890625 10.015625 18.65625 8.296875 
Q 24.421875 6.59375 29.984375 6.59375 
Q 38.421875 6.59375 43.015625 9.90625 
Q 47.609375 13.234375 47.609375 19.390625 
Q 47.609375 24.75 44.3125 27.78125 
Q 41.015625 30.8125 33.5 32.328125 
L 27.484375 33.5 
Q 16.453125 35.6875 11.515625 40.375 
Q 6.59375 45.0625 6.59375 53.421875 
Q 6.59375 63.09375 13.40625 68.65625 
Q 20.21875 74.21875 32.171875 74.21875 
Q 37.3125 74.21875 42.625 73.28125 
Q 47.953125 72.359375 53.515625 70.515625 
z
" id="DejaVuSans-83"/>
       <path d="M 41.109375 46.296875 
Q 39.59375 47.171875 37.8125 47.578125 
Q 36.03125 48 33.890625 48 
Q 26.265625 48 22.1875 43.046875 
Q 18.109375 38.09375 18.109375 28.8125 
L 18.109375 0 
L 9.078125 0 
L 9.078125 54.6875 
L 18.109375 54.6875 
L 18.109375 46.1875 
Q 20.953125 51.171875 25.484375 53.578125 
Q 30.03125 56 36.53125 56 
Q 37.453125 56 38.578125 55.875 
Q 39.703125 55.765625 41.0625 55.515625 
z
" id="DejaVuSans-114"/>
       <path d="M 2.984375 54.6875 
L 12.5 54.6875 
L 29.59375 8.796875 
L 46.6875 54.6875 
L 56.203125 54.6875 
L 35.6875 0 
L 23.484375 0 
z
" id="DejaVuSans-118"/>
      </defs>
      <g transform="translate(35.935938 405.993021)scale(0.18 -0.18)">
       <use xlink:href="#DejaVuSans-83"/>
       <use x="63.476562" xlink:href="#DejaVuSans-101"/>
       <use x="125" xlink:href="#DejaVuSans-114"/>
       <use x="166.113281" xlink:href="#DejaVuSans-118"/>
       <use x="225.292969" xlink:href="#DejaVuSans-101"/>
       <use x="286.816406" xlink:href="#DejaVuSans-114"/>
       <use x="327.929688" xlink:href="#DejaVuSans-95"/>
       <use x="377.929688" xlink:href="#DejaVuSans-49"/>
      </g>
     </g>
    </g>
    <g id="ytick_6">
     <g id="line2d_40">
      <path clip-path="url(#p30b958cf7e)" d="M 122.42 346.82 
L 853.2 346.82 
" style="fill:none;stroke:#b0b0b0;stroke-linecap:square;stroke-width:0.8;"/>
     </g>
     <g id="line2d_41">
      <g>
       <use style="stroke:#000000;stroke-width:0.8;" x="122.42" xlink:href="#mef52bb2fc8" y="346.82"/>
      </g>
     </g>
     <g id="text_29">
      <!-- Server_2 -->
      <g transform="translate(35.935938 353.499687)scale(0.18 -0.18)">
       <use xlink:href="#DejaVuSans-83"/>
       <use x="63.476562" xlink:href="#DejaVuSans-101"/>
       <use x="125" xlink:href="#DejaVuSans-114"/>
       <use x="166.113281" xlink:href="#DejaVuSans-118"/>
       <use x="225.292969" xlink:href="#DejaVuSans-101"/>
       <use x="286.816406" xlink:href="#DejaVuSans-114"/>
       <use x="327.929688" xlink:href="#DejaVuSans-95"/>
       <use x="377.929688" xlink:href="#DejaVuSans-50"/>
      </g>
     </g>
    </g>
    <g id="ytick_7">
     <g id="line2d_42">
      <path clip-path="url(#p30b958cf7e)" d="M 122.42 294.326667 
L 853.2 294.326667 
" style="fill:none;stroke:#b0b0b0;stroke-linecap:square;stroke-width:0.8;"/>
     </g>
     <g id="line2d_43">
      <g>
       <use style="stroke:#000000;stroke-width:0.8;" x="122.42" xlink:href="#mef52bb2fc8" y="294.326667"/>
      </g>
     </g>
     <g id="text_30">
      <!-- Server_3 -->
      <g transform="translate(35.935938 301.006354)scale(0.18 -0.18)">
       <use xlink:href="#DejaVuSans-83"/>
       <use x="63.476562" xlink:href="#DejaVuSans-101"/>
       <use x="125" xlink:href="#DejaVuSans-114"/>
       <use x="166.113281" xlink:href="#DejaVuSans-118"/>
       <use x="225.292969" xlink:href="#DejaVuSans-101"/>
       <use x="286.816406" xlink:href="#DejaVuSans-114"/>
       <use x="327.929688" xlink:href="#DejaVuSans-95"/>
       <use x="377.929688" xlink:href="#DejaVuSans-51"/>
      </g>
     </g>
    </g>
    <g id="text_31">
     <!-- ES -->
     <defs>
      <path d="M 9.8125 72.90625 
L 55.90625 72.90625 
L 55.90625 64.59375 
L 19.671875 64.59375 
L 19.671875 43.015625 
L 54.390625 43.015625 
L 54.390625 34.71875 
L 19.671875 34.71875 
L 19.671875 8.296875 
L 56.78125 8.296875 
L 56.78125 0 
L 9.8125 0 
z
" id="DejaVuSans-69"/>
     </defs>
     <g transform="translate(27.360625 360.753906)rotate(-90)scale(0.22 -0.22)">
      <use xlink:href="#DejaVuSans-69"/>
      <use x="63.183594" xlink:href="#DejaVuSans-83"/>
     </g>
    </g>
   </g>
   <g id="line2d_44">
    <path clip-path="url(#p30b958cf7e)" d="M 402.999942 399.313333 
L 721.03766 399.313333 
" style="fill:none;stroke:#ff7f0e;stroke-width:25;"/>
   </g>
   <g id="line2d_45">
    <path clip-path="url(#p30b958cf7e)" d="M 721.03766 346.82 
L 791.712708 346.82 
" style="fill:none;stroke:#ff7f0e;stroke-width:25;"/>
   </g>
   <g id="line2d_46">
    <path clip-path="url(#p30b958cf7e)" d="M 155.637273 399.313333 
L 226.312321 399.313333 
" style="fill:none;stroke:#2ca02c;stroke-width:25;"/>
   </g>
   <g id="line2d_47">
    <path clip-path="url(#p30b958cf7e)" d="M 438.337466 346.82 
L 579.687563 346.82 
" style="fill:none;stroke:#2ca02c;stroke-width:25;"/>
   </g>
   <g id="line2d_48">
    <path clip-path="url(#p30b958cf7e)" d="M 579.687563 294.326667 
L 819.982727 294.326667 
" style="fill:none;stroke:#2ca02c;stroke-width:25;"/>
   </g>
   <g id="line2d_49">
    <path clip-path="url(#p30b958cf7e)" d="M 353.527408 346.82 
L 438.337466 346.82 
" style="fill:none;stroke:#d62728;stroke-width:25;"/>
   </g>
   <g id="line2d_50">
    <path clip-path="url(#p30b958cf7e)" d="M 155.637273 294.326667 
L 353.527408 294.326667 
" style="fill:none;stroke:#d62728;stroke-width:25;"/>
   </g>
   <g id="line2d_51">
    <path clip-path="url(#p30b958cf7e)" d="M 261.649845 399.313333 
L 402.999942 399.313333 
" style="fill:none;stroke:#9467bd;stroke-width:25;"/>
   </g>
   <g id="line2d_52">
    <path clip-path="url(#p30b958cf7e)" d="M 819.982727 425.56 
L 819.982727 268.08 
" style="fill:none;stroke:#ff0000;stroke-dasharray:5.55,2.4;stroke-dashoffset:0;stroke-width:1.5;"/>
   </g>
   <g id="patch_8">
    <path d="M 122.42 425.56 
L 122.42 268.08 
" style="fill:none;stroke:#000000;stroke-linecap:square;stroke-linejoin:miter;stroke-width:0.8;"/>
   </g>
   <g id="patch_9">
    <path d="M 853.2 425.56 
L 853.2 268.08 
" style="fill:none;stroke:#000000;stroke-linecap:square;stroke-linejoin:miter;stroke-width:0.8;"/>
   </g>
   <g id="patch_10">
    <path d="M 122.42 425.56 
L 853.2 425.56 
" style="fill:none;stroke:#000000;stroke-linecap:square;stroke-linejoin:miter;stroke-width:0.8;"/>
   </g>
   <g id="patch_11">
    <path d="M 122.42 268.08 
L 853.2 268.08 
" style="fill:none;stroke:#000000;stroke-linecap:square;stroke-linejoin:miter;stroke-width:0.8;"/>
   </g>
   <g id="text_32">
    <!-- Task_1 -->
    <g style="fill:#ffffff;" transform="translate(539.913488 402.457708)scale(0.12 -0.12)">
     <use xlink:href="#DejaVuSans-Bold-84"/>
     <use x="55.337891" xlink:href="#DejaVuSans-Bold-97"/>
     <use x="122.818359" xlink:href="#DejaVuSans-Bold-115"/>
     <use x="182.339844" xlink:href="#DejaVuSans-Bold-107"/>
     <use x="248.84375" xlink:href="#DejaVuSans-Bold-95"/>
     <use x="298.84375" xlink:href="#DejaVuSans-Bold-49"/>
    </g>
   </g>
   <g id="text_33">
    <!-- Task_1 -->
    <g style="fill:#ffffff;" transform="translate(734.269871 349.964375)scale(0.12 -0.12)">
     <use xlink:href="#DejaVuSans-Bold-84"/>
     <use x="55.337891" xlink:href="#DejaVuSans-Bold-97"/>
     <use x="122.818359" xlink:href="#DejaVuSans-Bold-115"/>
     <use x="182.339844" xlink:href="#DejaVuSans-Bold-107"/>
     <use x="248.84375" xlink:href="#DejaVuSans-Bold-95"/>
     <use x="298.84375" xlink:href="#DejaVuSans-Bold-49"/>
    </g>
   </g>
   <g id="text_34">
    <!-- Task_2 -->
    <g style="fill:#ffffff;" transform="translate(168.869484 402.457708)scale(0.12 -0.12)">
     <use xlink:href="#DejaVuSans-Bold-84"/>
     <use x="55.337891" xlink:href="#DejaVuSans-Bold-97"/>
     <use x="122.818359" xlink:href="#DejaVuSans-Bold-115"/>
     <use x="182.339844" xlink:href="#DejaVuSans-Bold-107"/>
     <use x="248.84375" xlink:href="#DejaVuSans-Bold-95"/>
     <use x="298.84375" xlink:href="#DejaVuSans-Bold-50"/>
    </g>
   </g>
   <g id="text_35">
    <!-- Task_2 -->
    <g style="fill:#ffffff;" transform="translate(486.907202 349.964375)scale(0.12 -0.12)">
     <use xlink:href="#DejaVuSans-Bold-84"/>
     <use x="55.337891" xlink:href="#DejaVuSans-Bold-97"/>
     <use x="122.818359" xlink:href="#DejaVuSans-Bold-115"/>
     <use x="182.339844" xlink:href="#DejaVuSans-Bold-107"/>
     <use x="248.84375" xlink:href="#DejaVuSans-Bold-95"/>
     <use x="298.84375" xlink:href="#DejaVuSans-Bold-50"/>
    </g>
   </g>
   <g id="text_36">
    <!-- Task_2 -->
    <g style="fill:#ffffff;" transform="translate(677.729833 297.471042)scale(0.12 -0.12)">
     <use xlink:href="#DejaVuSans-Bold-84"/>
     <use x="55.337891" xlink:href="#DejaVuSans-Bold-97"/>
     <use x="122.818359" xlink:href="#DejaVuSans-Bold-115"/>
     <use x="182.339844" xlink:href="#DejaVuSans-Bold-107"/>
     <use x="248.84375" xlink:href="#DejaVuSans-Bold-95"/>
     <use x="298.84375" xlink:href="#DejaVuSans-Bold-50"/>
    </g>
   </g>
   <g id="text_37">
    <!-- Task_3 -->
    <g style="fill:#ffffff;" transform="translate(373.827125 349.964375)scale(0.12 -0.12)">
     <use xlink:href="#DejaVuSans-Bold-84"/>
     <use x="55.337891" xlink:href="#DejaVuSans-Bold-97"/>
     <use x="122.818359" xlink:href="#DejaVuSans-Bold-115"/>
     <use x="182.339844" xlink:href="#DejaVuSans-Bold-107"/>
     <use x="248.84375" xlink:href="#DejaVuSans-Bold-95"/>
     <use x="298.84375" xlink:href="#DejaVuSans-Bold-51"/>
    </g>
   </g>
   <g id="text_38">
    <!-- Task_3 -->
    <g style="fill:#ffffff;" transform="translate(232.477028 297.471042)scale(0.12 -0.12)">
     <use xlink:href="#DejaVuSans-Bold-84"/>
     <use x="55.337891" xlink:href="#DejaVuSans-Bold-97"/>
     <use x="122.818359" xlink:href="#DejaVuSans-Bold-115"/>
     <use x="182.339844" xlink:href="#DejaVuSans-Bold-107"/>
     <use x="248.84375" xlink:href="#DejaVuSans-Bold-95"/>
     <use x="298.84375" xlink:href="#DejaVuSans-Bold-51"/>
    </g>
   </g>
   <g id="text_39">
    <!-- Task_D -->
    <defs>
     <path d="M 27.984375 58.6875 
L 27.984375 14.203125 
L 34.71875 14.203125 
Q 46.234375 14.203125 52.3125 19.921875 
Q 58.40625 25.640625 58.40625 36.53125 
Q 58.40625 47.359375 52.34375 53.015625 
Q 46.296875 58.6875 34.71875 58.6875 
z
M 9.1875 72.90625 
L 29 72.90625 
Q 45.609375 72.90625 53.734375 70.53125 
Q 61.859375 68.171875 67.671875 62.5 
Q 72.796875 57.5625 75.28125 51.109375 
Q 77.78125 44.671875 77.78125 36.53125 
Q 77.78125 28.265625 75.28125 21.796875 
Q 72.796875 15.328125 67.671875 10.40625 
Q 61.8125 4.734375 53.609375 2.359375 
Q 45.40625 0 29 0 
L 9.1875 0 
z
" id="DejaVuSans-Bold-68"/>
    </defs>
    <g style="fill:#ffffff;" transform="translate(309.413331 402.457708)scale(0.12 -0.12)">
     <use xlink:href="#DejaVuSans-Bold-84"/>
     <use x="55.337891" xlink:href="#DejaVuSans-Bold-97"/>
     <use x="122.818359" xlink:href="#DejaVuSans-Bold-115"/>
     <use x="182.339844" xlink:href="#DejaVuSans-Bold-107"/>
     <use x="248.84375" xlink:href="#DejaVuSans-Bold-95"/>
     <use x="298.84375" xlink:href="#DejaVuSans-Bold-68"/>
    </g>
   </g>
   <g id="text_40">
    <!-- 94.0 -->
    <g transform="translate(806.623352 445.176792)scale(0.12 -0.12)">
     <use xlink:href="#DejaVuSans-57"/>
     <use x="63.623047" xlink:href="#DejaVuSans-52"/>
     <use x="127.246094" xlink:href="#DejaVuSans-46"/>
     <use x="159.033203" xlink:href="#DejaVuSans-48"/>
    </g>
   </g>
   <g id="text_41">
    <!-- ES Schedule -->
    <defs>
     <path d="M 9.1875 72.90625 
L 59.90625 72.90625 
L 59.90625 58.6875 
L 27.984375 58.6875 
L 27.984375 45.125 
L 58.015625 45.125 
L 58.015625 30.90625 
L 27.984375 30.90625 
L 27.984375 14.203125 
L 60.984375 14.203125 
L 60.984375 0 
L 9.1875 0 
z
" id="DejaVuSans-Bold-69"/>
    </defs>
    <g transform="translate(425.680469 262.08)scale(0.18 -0.18)">
     <use xlink:href="#DejaVuSans-Bold-69"/>
     <use x="68.310547" xlink:href="#DejaVuSans-Bold-83"/>
     <use x="140.332031" xlink:href="#DejaVuSans-Bold-32"/>
     <use x="175.146484" xlink:href="#DejaVuSans-Bold-83"/>
     <use x="247.167969" xlink:href="#DejaVuSans-Bold-99"/>
     <use x="306.445312" xlink:href="#DejaVuSans-Bold-104"/>
     <use x="377.636719" xlink:href="#DejaVuSans-Bold-101"/>
     <use x="445.458984" xlink:href="#DejaVuSans-Bold-100"/>
     <use x="517.041016" xlink:href="#DejaVuSans-Bold-117"/>
     <use x="588.232422" xlink:href="#DejaVuSans-Bold-108"/>
     <use x="622.509766" xlink:href="#DejaVuSans-Bold-101"/>
    </g>
   </g>
  </g>
 </g>
 <defs>
  <clipPath id="p2643c71399">
   <rect height="157.48" width="730.78" x="122.42" y="30.48"/>
  </clipPath>
  <clipPath id="p30b958cf7e">
   <rect height="157.48" width="730.78" x="122.42" y="268.08"/>
  </clipPath>
 </defs>
</svg>
